<svg xmlns="http://www.w3.org/2000/svg" width="28.137" height="26.727" viewBox="0 0 28.137 26.727">
  <g id="Group_370" data-name="Group 370" transform="translate(0 0)">
    <path id="Path_256" data-name="Path 256" d="M260.908,223.267l2.851,2.083,2.851,2.083-1.089,3.37-1.089,3.37h-7.048l-1.089-3.37-1.089-3.37,2.851-2.083Z" transform="translate(-246.871 -215.975)" fill="#fff" fill-rule="evenodd"/>
    <path id="Path_257" data-name="Path 257" d="M686.568,167.1l-.955,2.57,2.158,1.691,2.158,1.691,1.43-.953-2.484-7.519-1.351-.051Z" transform="translate(-663.221 -159.153)" fill="#fff"/>
    <path id="Path_258" data-name="Path 258" d="M303.391,0l-7.919.021L295,1.29,297.149,3l2.145,1.707,2.279-1.525,2.279-1.525Z" transform="translate(-285.37)" fill="#fff"/>
    <path id="Path_259" data-name="Path 259" d="M0,182.279l1.051.851,2.306-1.483,2.306-1.483-.712-2.648-.712-2.648-1.715-.1Z" transform="translate(0 -169.064)" fill="#fff"/>
    <path id="Path_260" data-name="Path 260" d="M93.507,627.617l-2.742.02-.414,1.287,6.218,4.9,1.384-1.018L97.1,630.2l-.852-2.606Z" transform="translate(-87.401 -607.101)" fill="#fff"/>
    <path id="Path_261" data-name="Path 261" d="M540.364,630.2l-.852,2.606,1.384,1.018,6.218-4.9-.414-1.287-2.742-.02-2.742-.019Z" transform="translate(-521.892 -607.101)" fill="#fff"/>
  </g>
</svg>