<svg id="Group_335" data-name="Group 335" xmlns="http://www.w3.org/2000/svg" xmlns:xlink="http://www.w3.org/1999/xlink" width="40.001" height="37.748" viewBox="0 0 40.001 37.748">
  <defs>
    <clipPath id="clip-path">
      <rect id="Rectangle_34242" data-name="Rectangle 34242" width="40.001" height="37.748" fill="none"/>
    </clipPath>
  </defs>
  <g id="Group_332" data-name="Group 332">
    <g id="Group_331" data-name="Group 331" clip-path="url(#clip-path)">
      <path id="Path_281" data-name="Path 281" d="M120.2,1.817l-.238-.111-.1-.045A18.738,18.738,0,0,0,112.145,0V1.362h.094c.567.74,1.142,1.487,1.364,1.758.493.6.165.82-.328,1.532-.174.251-.6.857-1.13,1.554v6.333l5.834,1.8s.329,5.469.384,7.006-.383,1.971-1.369,2.244a50.425,50.425,0,0,0-4.816,1.642l-.033.014V30.9q1.336,1.265,2.6,2.6c.657.767.328.93-.328,1.751-.254.316-.53.69-.776,1.07l0,0q-.741.064-1.5.065h0v1.342h0c.279,0,.554-.007.83-.019l-.007.033a18.782,18.782,0,0,0,10.894-4.089h-.015a18.911,18.911,0,0,0,6.5-9.826l.024-.09a18.767,18.767,0,0,0,.594-3.592l.009-.138q.009-.154.016-.311c0-.064,0-.127.007-.191q0-.149.008-.3v-.332A18.889,18.889,0,0,0,120.2,1.817m-1.4,2.669c.515-.212,1.525-.323,2.333-.639h0a17.6,17.6,0,0,1,7.721,9.776c-.612.908-1.55,2.358-2.228,2.358-.82,0-3.606-1.587-5.034-2.189s-1.915-1.149-2.135-3.066-1.587-5.857-.657-6.241m10.406,18.351a17.562,17.562,0,0,1-6.924,10.309c-.836-.277-1.763-.595-2.278-.8-1.094-.438-.493-2.517-.219-4s.058-2.9.713-4.105,5.582-3.557,6.677-3.557,1.532,1.259,2.025,2.134l.007.012Z" transform="translate(-91.004 0.001)" fill="#fff" fill-rule="evenodd"/>
      <path id="Path_282" data-name="Path 282" d="M74.386,1.944l.881-.175a.074.074,0,0,1,.087.058l.811,4.081a.073.073,0,0,1-.011.055.072.072,0,0,1-.047.031l-.857.17a.074.074,0,0,1-.087-.058l-.635-3.194a.035.035,0,0,0-.017-.022.02.02,0,0,0-.025,0l-.564.256-.023.011c-.036.007-.059-.011-.067-.056l-.138-.632a.088.088,0,0,1,.038-.1l.568-.4a.265.265,0,0,1,.087-.036" transform="translate(-59.799 -1.434)" fill="#fff"/>
      <path id="Path_283" data-name="Path 283" d="M35.9,121.28h1.076a.088.088,0,0,1,.088.088v4.981a.088.088,0,0,1-.088.088H35.931a.088.088,0,0,1-.088-.088v-3.9a.043.043,0,0,0-.015-.029.024.024,0,0,0-.029-.007l-.722.169-.029.008q-.066,0-.066-.081l-.015-.774a.1.1,0,0,1,.066-.1l.759-.332a.315.315,0,0,1,.11-.022" transform="translate(-28.374 -98.417)" fill="#fff"/>
      <path id="Path_284" data-name="Path 284" d="M83.9,176.175l.727-.369a.066.066,0,0,1,.09.029l1.707,3.366a.067.067,0,0,1-.029.09l-.707.359a.067.067,0,0,1-.09-.03l-1.336-2.634a.033.033,0,0,0-.02-.015.018.018,0,0,0-.022,0l-.43.362-.018.015c-.03.015-.054,0-.073-.032l-.275-.518a.079.079,0,0,1,.009-.092l.4-.484a.239.239,0,0,1,.067-.053" transform="translate(-67.693 -142.658)" fill="#fff"/>
      <path id="Path_285" data-name="Path 285" d="M68.6,47.576a1.732,1.732,0,0,1-.488-1.3V44.473a1.685,1.685,0,0,1,.488-1.28,2.161,2.161,0,0,1,2.686,0,1.675,1.675,0,0,1,.5,1.276v1.805a1.718,1.718,0,0,1-.5,1.3,1.86,1.86,0,0,1-1.347.477,1.834,1.834,0,0,1-1.339-.477m1.787-.754a.662.662,0,0,0,.166-.477V44.429a.663.663,0,0,0-.166-.477.591.591,0,0,0-.448-.174.569.569,0,0,0-.436.174.67.67,0,0,0-.163.477v1.916a.68.68,0,0,0,.159.477.567.567,0,0,0,.44.174.592.592,0,0,0,.448-.174" transform="translate(-55.27 -34.672)" fill="#fff"/>
      <path id="Path_286" data-name="Path 286" d="M101.6,89.576a1.732,1.732,0,0,1-.488-1.3V86.473a1.686,1.686,0,0,1,.488-1.28,2.161,2.161,0,0,1,2.686,0,1.675,1.675,0,0,1,.5,1.276v1.805a1.718,1.718,0,0,1-.5,1.3,1.861,1.861,0,0,1-1.347.477,1.834,1.834,0,0,1-1.339-.477m1.787-.754a.662.662,0,0,0,.166-.477V86.429a.663.663,0,0,0-.166-.477.591.591,0,0,0-.448-.174.569.569,0,0,0-.436.174.67.67,0,0,0-.163.477v1.916a.68.68,0,0,0,.159.477.567.567,0,0,0,.44.174.592.592,0,0,0,.448-.174" transform="translate(-82.049 -68.755)" fill="#fff"/>
      <path id="Path_287" data-name="Path 287" d="M33.833,95.039a1.063,1.063,0,0,1-.3-.8V93.134a1.035,1.035,0,0,1,.3-.786,1.327,1.327,0,0,1,1.649,0,1.029,1.029,0,0,1,.3.783v1.108a1.055,1.055,0,0,1-.3.8,1.142,1.142,0,0,1-.827.293,1.125,1.125,0,0,1-.822-.293m1.1-.463a.406.406,0,0,0,.1-.293V93.106a.407.407,0,0,0-.1-.293.363.363,0,0,0-.275-.107.35.35,0,0,0-.268.107.412.412,0,0,0-.1.293v1.176a.418.418,0,0,0,.1.293.348.348,0,0,0,.27.107.363.363,0,0,0,.275-.107" transform="translate(-27.212 -74.707)" fill="#fff"/>
      <path id="Path_288" data-name="Path 288" d="M32.168,24.578a1.357,1.357,0,0,1-.382-1.017V22.148a1.32,1.32,0,0,1,.382-1,1.692,1.692,0,0,1,2.1,0,1.312,1.312,0,0,1,.388,1v1.413a1.345,1.345,0,0,1-.388,1.017,1.456,1.456,0,0,1-1.054.374,1.436,1.436,0,0,1-1.049-.374m1.4-.591a.518.518,0,0,0,.13-.374v-1.5a.518.518,0,0,0-.13-.374.463.463,0,0,0-.35-.136.447.447,0,0,0-.342.136.526.526,0,0,0-.127.374v1.5a.532.532,0,0,0,.125.374.444.444,0,0,0,.345.136.463.463,0,0,0,.35-.136" transform="translate(-25.794 -16.863)" fill="#fff"/>
      <path id="Path_289" data-name="Path 289" d="M77.371,90.855l.884.159a.071.071,0,0,1,.048.031.072.072,0,0,1,.012.055l-.738,4.1a.074.074,0,0,1-.086.06l-.86-.155a.074.074,0,0,1-.06-.086l.577-3.2a.036.036,0,0,0-.008-.026.02.02,0,0,0-.023-.01L76.5,91.8l-.025,0q-.055-.01-.043-.076l.1-.639a.088.088,0,0,1,.07-.075l.673-.16a.266.266,0,0,1,.094,0" transform="translate(-62.022 -73.724)" fill="#fff"/>
      <path id="Path_290" data-name="Path 290" d="M39.439,52.916l1.158.208a.1.1,0,0,1,.078.112l-.965,5.36a.1.1,0,0,1-.112.078l-1.126-.2a.1.1,0,0,1-.078-.112l.756-4.195a.047.047,0,0,0-.01-.034.026.026,0,0,0-.03-.014l-.81.042-.033,0c-.048-.008-.066-.042-.055-.1l.134-.835a.115.115,0,0,1,.092-.1l.881-.21a.348.348,0,0,1,.123,0" transform="translate(-31.004 -42.937)" fill="#fff"/>
      <path id="Path_291" data-name="Path 291" d="M14.979,137.8h.62a.051.051,0,0,1,.051.051v2.873a.051.051,0,0,1-.051.051H15a.051.051,0,0,1-.051-.051v-2.248a.024.024,0,0,0-.008-.017.014.014,0,0,0-.017,0l-.416.1-.017,0c-.025,0-.038-.016-.038-.047l-.009-.446a.061.061,0,0,1,.038-.06l.438-.191a.178.178,0,0,1,.064-.013" transform="translate(-11.717 -111.822)" fill="#fff"/>
      <path id="Path_292" data-name="Path 292" d="M.427,99.188A1.515,1.515,0,0,1,0,98.053V96.474a1.474,1.474,0,0,1,.427-1.119A1.627,1.627,0,0,1,1.6,94.947a1.643,1.643,0,0,1,1.178.411,1.466,1.466,0,0,1,.434,1.116v1.579a1.5,1.5,0,0,1-.434,1.136,1.627,1.627,0,0,1-1.178.417,1.6,1.6,0,0,1-1.171-.417m1.563-.66a.577.577,0,0,0,.146-.417V96.435a.578.578,0,0,0-.146-.417.517.517,0,0,0-.391-.152.5.5,0,0,0-.382.152.588.588,0,0,0-.142.417v1.676a.6.6,0,0,0,.139.417.5.5,0,0,0,.385.152.516.516,0,0,0,.391-.152" transform="translate(0 -77.048)" fill="#fff"/>
      <path id="Path_293" data-name="Path 293" d="M10.819,58l.668.12a.054.054,0,0,1,.036.023.055.055,0,0,1,.009.042l-.557,3.1a.055.055,0,0,1-.023.036.054.054,0,0,1-.042.009l-.65-.117a.053.053,0,0,1-.036-.023.052.052,0,0,1-.009-.042l.436-2.422a.028.028,0,0,0-.006-.02.016.016,0,0,0-.018-.008l-.468.025h-.019q-.041-.007-.032-.058l.078-.482a.066.066,0,0,1,.053-.057L10.748,58a.2.2,0,0,1,.071,0" transform="translate(-8.202 -47.063)" fill="#fff"/>
    </g>
  </g>
  <text id="_1" data-name="1" transform="translate(17.651 26.245) rotate(10.21)" fill="#fff" font-size="2" font-family="SegoeUI, Segoe UI"><tspan x="0" y="0">1</tspan></text>
  <g id="Group_334" data-name="Group 334">
    <g id="Group_333" data-name="Group 333" clip-path="url(#clip-path)">
      <path id="Path_294" data-name="Path 294" d="M66.016,135.31a1.557,1.557,0,0,1-.439-1.167v-1.622a1.516,1.516,0,0,1,.439-1.15,1.942,1.942,0,0,1,2.413,0,1.506,1.506,0,0,1,.445,1.147v1.622a1.544,1.544,0,0,1-.445,1.167,1.672,1.672,0,0,1-1.21.429,1.649,1.649,0,0,1-1.2-.429m1.606-.678a.594.594,0,0,0,.15-.429v-1.722a.6.6,0,0,0-.15-.429.531.531,0,0,0-.4-.156.512.512,0,0,0-.392.156.6.6,0,0,0-.146.429V134.2a.61.61,0,0,0,.143.429.508.508,0,0,0,.4.156.53.53,0,0,0,.4-.156" transform="translate(-53.215 -106.266)" fill="#fff"/>
      <path id="Path_295" data-name="Path 295" d="M42.763,168.446a1.335,1.335,0,0,1-.376-1v-1.391a1.3,1.3,0,0,1,.376-.986,1.665,1.665,0,0,1,2.069,0,1.291,1.291,0,0,1,.382.983v1.391a1.324,1.324,0,0,1-.382,1,1.434,1.434,0,0,1-1.037.368,1.413,1.413,0,0,1-1.032-.368m1.377-.581a.51.51,0,0,0,.128-.368v-1.476a.51.51,0,0,0-.128-.368.455.455,0,0,0-.345-.134.438.438,0,0,0-.336.134.516.516,0,0,0-.125.368V167.5a.523.523,0,0,0,.123.368.436.436,0,0,0,.339.134.455.455,0,0,0,.345-.134" transform="translate(-34.396 -133.66)" fill="#fff"/>
    </g>
  </g>
</svg>
