<svg xmlns="http://www.w3.org/2000/svg" width="28.576" height="25.487" viewBox="0 0 28.576 25.487">
  <g id="noun-news-1242581" transform="translate(-86.831 -95.203)">
    <path id="Path_5" data-name="Path 5" d="M147.434,95.2v22.784a2.7,2.7,0,0,1-2.7,2.7h23.942a2.7,2.7,0,0,0,2.7-2.7V95.2Zm3.862,3.862h7.723v5.406H151.3Zm10.813,0h5.406a.772.772,0,1,1,0,1.545h-5.406a.772.772,0,1,1,0-1.545ZM142.8,109.1v8.882a1.931,1.931,0,1,0,3.862,0V109.1Zm19.308-6.179h5.406a.772.772,0,1,1,0,1.545h-5.406a.772.772,0,1,1,0-1.545ZM151.3,107.56h16.219a.772.772,0,0,1,0,1.545H151.3a.772.772,0,0,1,0-1.545Zm0,4.248h16.219a.772.772,0,0,1,0,1.545H151.3a.772.772,0,0,1,0-1.545Zm0,4.248h16.219a.772.772,0,0,1,0,1.545H151.3a.772.772,0,0,1,0-1.545Z" transform="translate(-55.969)" fill="#fff"/>
  </g>
</svg>
