<svg xmlns="http://www.w3.org/2000/svg" width="28.21" height="26.551" viewBox="0 0 28.21 26.551">
  <g id="noun-list-607258" transform="translate(-80.035 -56)">
    <path id="Path_175" data-name="Path 175" d="M132.638,59.319A3.319,3.319,0,1,1,129.319,56a3.319,3.319,0,0,1,3.319,3.319" transform="translate(-45.965)" fill="#fff"/>
    <path id="Path_176" data-name="Path 176" d="M132.638,227.319A3.319,3.319,0,1,1,129.319,224a3.319,3.319,0,0,1,3.319,3.319" transform="translate(-45.965 -158.043)" fill="#fff"/>
    <path id="Path_177" data-name="Path 177" d="M132.638,395.319A3.319,3.319,0,1,1,129.319,392a3.319,3.319,0,0,1,3.319,3.319" transform="translate(-45.965 -316.087)" fill="#fff"/>
    <path id="Path_178" data-name="Path 178" d="M294,406h18.254v4.978H294Z" transform="translate(-204.009 -329.257)" fill="#fff"/>
    <path id="Path_179" data-name="Path 179" d="M294,238h18.254v4.978H294Z" transform="translate(-204.009 -171.214)" fill="#fff"/>
    <path id="Path_180" data-name="Path 180" d="M294,70h18.254v4.978H294Z" transform="translate(-204.009 -13.17)" fill="#fff"/>
  </g>
</svg>
